<svg width="112" height="36" viewBox="0 0 112 36" fill="none" xmlns="http://www.w3.org/2000/svg">
<g clip-path="url(#clip0)">
<path d="M0.215332 8.44417H9.34225V36H17.5269V8.44417H26.6538V0.847107H0.215332V8.44417Z" fill="#FBEF38"/>
<path d="M42.1076 0.847107H33.95V36H42.1076V0.847107Z" fill="#F6B6DA"/>
<path d="M64.777 0.0264893C61.0616 0.0264893 57.6962 1.32355 55.3 3.7059C52.9308 6.03531 51.6116 9.34414 51.6116 12.9706V36H59.7693V12.8383C59.7693 9.71472 61.6 7.91472 64.777 7.91472C67.9808 7.91472 69.8385 9.71472 69.8385 12.8383V36H77.9962V12.9706C77.9962 9.31766 76.677 6.03531 74.3077 3.7059C71.9116 1.32355 68.5193 0.0264893 64.777 0.0264893Z" fill="#FE871A"/>
<path d="M103.654 11.0912C103.654 14.2148 101.823 16.0148 98.6462 16.0148C95.4155 16.0148 93.6385 14.2677 93.6385 11.0912V0.847107H85.427V10.9324C85.427 14.6118 86.7462 17.9206 89.1155 20.25C90.5962 21.7059 92.4539 22.7648 94.527 23.3471V36H102.739V23.3736C104.785 22.7912 106.642 21.7324 108.15 20.2765C110.519 17.9471 111.839 14.6383 111.839 10.9589V0.873579H103.654V11.0912Z" fill="#A8DEDD"/>
</g>
<defs>
<clipPath id="clip0">
<rect width="112" height="36" fill="white"/>
</clipPath>
</defs>
</svg>
